<svg width="16" height="17" viewBox="0 0 16 17" fill="none" xmlns="http://www.w3.org/2000/svg">
<path opacity="0.501961" fill-rule="evenodd" clip-rule="evenodd" d="M14.8658 14.9228L10.9367 9.68928H10.6527L10.3675 9.97409L9.94832 9.39519C10.8797 8.45109 11.4562 7.15549 11.4562 5.72679C11.4562 2.8435 9.11052 0.496994 6.22651 0.496994C3.34281 0.496994 0.997009 2.84349 0.997009 5.72679C0.997009 8.61059 3.34281 10.9567 6.22651 10.9567C7.08061 10.9567 7.88612 10.7461 8.59931 10.3818L9.1227 10.9781L8.808 11.2942V11.444C8.808 11.444 12.6765 16.3019 12.9167 16.5415C13.1563 16.782 13.6962 16.6917 13.6962 16.6917C13.6962 16.6917 14.4761 16.2411 14.8658 15.8517C15.2551 15.4619 14.8658 14.9228 14.8658 14.9228L14.8658 14.9228ZM2.84421 5.72679C2.84421 3.8623 4.36141 2.3446 6.22651 2.3446C8.09181 2.3446 9.60882 3.8623 9.60882 5.72679C9.60882 7.59229 8.09181 9.1095 6.22651 9.1095C4.36141 9.1095 2.84421 7.5923 2.84421 5.72679Z" fill="#8E929B"/>
</svg>
